<svg width="25" height="28" viewBox="0 0 25 28" fill="none" xmlns="http://www.w3.org/2000/svg">
<g clip-path="url(#clip0_18_179)">
<path d="M2.18173 12.9344C2.12881 12.2527 2.60857 11.6666 3.21948 11.6666H5.2083C5.78361 11.6666 6.24997 12.1889 6.24997 12.8333V23.9166C6.24997 24.561 5.78361 25.0833 5.2083 25.0833H4.07998C3.53967 25.0833 3.08904 24.6206 3.04223 24.0177L2.18173 12.9344Z" stroke="#FF7A30" stroke-width="2" stroke-linecap="round" stroke-linejoin="round"/>
<g filter="url(#filter0_d_18_179)">
<path d="M9.375 12.4684C9.375 11.9809 9.64552 11.5446 10.0392 11.3368C10.8978 10.8834 12.3609 9.97134 13.0208 8.73859C13.8714 7.14982 14.0318 4.27926 14.0579 3.62175C14.0616 3.5297 14.0592 3.43755 14.0705 3.34629C14.2115 2.20756 16.1741 3.53783 16.9271 4.94436C17.3357 5.70771 17.3881 6.71063 17.3452 7.49363C17.2992 8.33142 17.0798 9.14074 16.8647 9.9448L16.4062 11.6576H22.0609C22.7517 11.6576 23.2511 12.3968 23.0633 13.1414L20.2663 24.2337C20.1396 24.7363 19.7301 25.0833 19.2639 25.0833H10.4167C9.84135 25.0833 9.375 24.561 9.375 23.9166V12.4684Z" stroke="#FF7A30" stroke-width="2" stroke-linecap="round" stroke-linejoin="round" shape-rendering="crispEdges"/>
</g>
</g>
<defs>
<filter id="filter0_d_18_179" x="4.375" y="1.91663" width="23.7244" height="32.1666" filterUnits="userSpaceOnUse" color-interpolation-filters="sRGB">
<feFlood flood-opacity="0" result="BackgroundImageFix"/>
<feColorMatrix in="SourceAlpha" type="matrix" values="0 0 0 0 0 0 0 0 0 0 0 0 0 0 0 0 0 0 127 0" result="hardAlpha"/>
<feOffset dy="4"/>
<feGaussianBlur stdDeviation="2"/>
<feComposite in2="hardAlpha" operator="out"/>
<feColorMatrix type="matrix" values="0 0 0 0 0 0 0 0 0 0 0 0 0 0 0 0 0 0 0.25 0"/>
<feBlend mode="normal" in2="BackgroundImageFix" result="effect1_dropShadow_18_179"/>
<feBlend mode="normal" in="SourceGraphic" in2="effect1_dropShadow_18_179" result="shape"/>
</filter>
<clipPath id="clip0_18_179">
<rect width="25" height="28" fill="white"/>
</clipPath>
</defs>
</svg>
