<svg width="51" height="49" viewBox="0 0 51 49" fill="none" xmlns="http://www.w3.org/2000/svg">
<g filter="url(#filter0_d_1_280)">
<path d="M45.0446 18.4651C45.6798 18.4651 46.1946 17.9502 46.1946 17.3151C46.1946 16.6799 45.6798 16.1651 45.0446 16.1651V18.4651ZM4.52197 18.4651L45.0446 18.4651V16.1651L4.52197 16.1651V18.4651Z" fill="#FF7A30"/>
<path d="M33.7395 1.02735C33.3494 0.526116 32.7587 0.555348 32.42 1.09264C32.0813 1.62992 32.1229 2.47181 32.513 2.97304L33.7395 1.02735ZM45.6579 16.3422L33.7395 1.02735L32.513 2.97304L44.4314 18.2879L45.6579 16.3422Z" fill="#FF7A30"/>
<g filter="url(#filter1_d_1_280)">
<path d="M5.71391 24.6731C5.07878 24.6731 4.56391 25.188 4.56391 25.8231C4.56391 26.4582 5.07878 26.9731 5.71391 26.9731V24.6731ZM46.2366 24.6731L5.71391 24.6731V26.9731L46.2366 26.9731V24.6731Z" fill="#FF7A30"/>
<path d="M16.9668 40.3744C17.3852 40.8523 18.0222 40.8197 18.3896 40.3016C18.757 39.7835 18.7157 38.9761 18.2973 38.4983L16.9668 40.3744ZM5.04839 26.7612L16.9668 40.3744L18.2973 38.4983L6.37886 24.8851L5.04839 26.7612Z" fill="#FF7A30"/>
</g>
</g>
<defs>
<filter id="filter0_d_1_280" x="0.521973" y="0.6698" width="49.7146" height="48.0427" filterUnits="userSpaceOnUse" color-interpolation-filters="sRGB">
<feFlood flood-opacity="0" result="BackgroundImageFix"/>
<feColorMatrix in="SourceAlpha" type="matrix" values="0 0 0 0 0 0 0 0 0 0 0 0 0 0 0 0 0 0 127 0" result="hardAlpha"/>
<feOffset dy="4"/>
<feGaussianBlur stdDeviation="2"/>
<feComposite in2="hardAlpha" operator="out"/>
<feColorMatrix type="matrix" values="0 0 0 0 0 0 0 0 0 0 0 0 0 0 0 0 0 0 0.25 0"/>
<feBlend mode="normal" in2="BackgroundImageFix" result="effect1_dropShadow_1_280"/>
<feBlend mode="normal" in="SourceGraphic" in2="effect1_dropShadow_1_280" result="shape"/>
</filter>
<filter id="filter1_d_1_280" x="0.563965" y="24.6731" width="49.6726" height="24.0394" filterUnits="userSpaceOnUse" color-interpolation-filters="sRGB">
<feFlood flood-opacity="0" result="BackgroundImageFix"/>
<feColorMatrix in="SourceAlpha" type="matrix" values="0 0 0 0 0 0 0 0 0 0 0 0 0 0 0 0 0 0 127 0" result="hardAlpha"/>
<feOffset dy="4"/>
<feGaussianBlur stdDeviation="2"/>
<feComposite in2="hardAlpha" operator="out"/>
<feColorMatrix type="matrix" values="0 0 0 0 0 0 0 0 0 0 0 0 0 0 0 0 0 0 0.25 0"/>
<feBlend mode="normal" in2="BackgroundImageFix" result="effect1_dropShadow_1_280"/>
<feBlend mode="normal" in="SourceGraphic" in2="effect1_dropShadow_1_280" result="shape"/>
</filter>
</defs>
</svg>
