<svg width="46" height="50" viewBox="0 0 46 50" fill="none" xmlns="http://www.w3.org/2000/svg">
<path d="M41.9856 26.9028C42.0829 28.1201 41.2002 29.1667 40.0761 29.1667H36.4167C35.3581 29.1667 34.5 28.234 34.5 27.0834V7.29169C34.5 6.14106 35.3581 5.20835 36.4167 5.20835H38.4928C39.487 5.20835 40.3161 6.0346 40.4022 7.11116L41.9856 26.9028Z" stroke="#FF7A30" stroke-width="2" stroke-linecap="round" stroke-linejoin="round"/>
<path d="M28.75 27.7349C28.75 28.6054 28.2522 29.3846 27.5278 29.7557C25.948 30.5652 23.256 32.194 22.0417 34.3953C20.4766 37.2324 20.1814 42.3584 20.1334 43.5325C20.1267 43.6969 20.131 43.8615 20.1102 44.0244C19.8508 46.0579 16.2396 43.6824 14.8542 41.1707C14.1023 39.8076 14.0058 38.0167 14.0849 36.6185C14.1695 35.1224 14.5731 33.6772 14.969 32.2414L15.8125 29.1828L5.40797 29.1828C4.13693 29.1828 3.21799 27.8627 3.56346 26.5332L8.71 6.72544C8.94317 5.82804 9.69661 5.20835 10.5545 5.20835H26.8333C27.8919 5.20835 28.75 6.14106 28.75 7.29168V27.7349Z" stroke="#FF7A30" stroke-width="2" stroke-linecap="round" stroke-linejoin="round"/>
</svg>
