<svg width="87" height="46" viewBox="0 0 87 46" fill="none" xmlns="http://www.w3.org/2000/svg">
<path d="M0.155273 0H66.3942C77.4399 0 86.3942 8.9543 86.3942 20V25.7455C86.3942 36.7912 77.4399 45.7455 66.3942 45.7455H0.155273V0Z" fill="#131517"/>
<g clip-path="url(#clip0_1_63)">
<path d="M54.5564 26.1417C54.6157 26.8721 54.0784 27.5 53.3942 27.5H51.1667C50.5223 27.5 50 26.9404 50 26.25V14.375C50 13.6846 50.5223 13.125 51.1667 13.125H52.4304C53.0355 13.125 53.5402 13.6207 53.5927 14.2667L54.5564 26.1417Z" fill="white" stroke="white" stroke-width="2" stroke-linecap="round" stroke-linejoin="round"/>
<g filter="url(#filter0_d_1_63)">
<path d="M46.5 26.6409C46.5 27.1632 46.197 27.6307 45.7561 27.8534C44.7945 28.3391 43.1558 29.3164 42.4167 30.6372C41.464 32.3394 41.2844 35.415 41.2551 36.1195C41.251 36.2181 41.2537 36.3169 41.241 36.4146C41.0831 37.6347 38.885 36.2094 38.0417 34.7024C37.584 33.8846 37.5253 32.81 37.5734 31.9711C37.6249 31.0734 37.8706 30.2063 38.1115 29.3448L38.625 27.5097H32.2918C31.5181 27.5097 30.9588 26.7176 31.1691 25.9199L34.3017 14.0353C34.4437 13.4968 34.9023 13.125 35.4245 13.125H45.3333C45.9777 13.125 46.5 13.6846 46.5 14.375V26.6409Z" fill="white"/>
<path d="M46.5 26.6409C46.5 27.1632 46.197 27.6307 45.7561 27.8534C44.7945 28.3391 43.1558 29.3164 42.4167 30.6372C41.464 32.3394 41.2844 35.415 41.2551 36.1195C41.251 36.2181 41.2537 36.3169 41.241 36.4146C41.0831 37.6347 38.885 36.2094 38.0417 34.7024C37.584 33.8846 37.5253 32.81 37.5734 31.9711C37.6249 31.0734 37.8706 30.2063 38.1115 29.3448L38.625 27.5097H32.2918C31.5181 27.5097 30.9588 26.7176 31.1691 25.9199L34.3017 14.0353C34.4437 13.4968 34.9023 13.125 35.4245 13.125H45.3333C45.9777 13.125 46.5 13.6846 46.5 14.375V26.6409Z" stroke="white" stroke-width="2" stroke-linecap="round" stroke-linejoin="round"/>
</g>
</g>
<defs>
<filter id="filter0_d_1_63" x="26.1267" y="12.125" width="25.3733" height="33.75" filterUnits="userSpaceOnUse" color-interpolation-filters="sRGB">
<feFlood flood-opacity="0" result="BackgroundImageFix"/>
<feColorMatrix in="SourceAlpha" type="matrix" values="0 0 0 0 0 0 0 0 0 0 0 0 0 0 0 0 0 0 127 0" result="hardAlpha"/>
<feOffset dy="4"/>
<feGaussianBlur stdDeviation="2"/>
<feComposite in2="hardAlpha" operator="out"/>
<feColorMatrix type="matrix" values="0 0 0 0 0 0 0 0 0 0 0 0 0 0 0 0 0 0 0.25 0"/>
<feBlend mode="normal" in2="BackgroundImageFix" result="effect1_dropShadow_1_63"/>
<feBlend mode="normal" in="SourceGraphic" in2="effect1_dropShadow_1_63" result="shape"/>
</filter>
<clipPath id="clip0_1_63">
<rect width="28" height="30" fill="white" transform="matrix(-1 0 0 -1 57 40)"/>
</clipPath>
</defs>
</svg>
