<svg width="722" height="114" viewBox="0 0 722 114" fill="none" xmlns="http://www.w3.org/2000/svg">
<g filter="url(#filter0_d_19_965)">
<mask id="path-1-inside-1_19_965" fill="white">
<path d="M4 0H718V106H4V0Z"/>
</mask>
<path d="M4 0H718V106H4V0Z" fill="#131517" fill-opacity="0.25" shape-rendering="crispEdges"/>
<path d="M718 102H4V110H718V102Z" fill="#FF7A30" fill-opacity="0.7" mask="url(#path-1-inside-1_19_965)"/>
</g>
<path d="M58.9998 48.8333C63.6022 48.8333 67.3332 45.1024 67.3332 40.5C67.3332 35.8976 63.6022 32.1667 58.9998 32.1667C54.3975 32.1667 50.6665 35.8976 50.6665 40.5C50.6665 45.1024 54.3975 48.8333 58.9998 48.8333Z" stroke="#FF7A30" stroke-width="4" stroke-linecap="round" stroke-linejoin="round"/>
<path d="M77.75 73.8333C77.75 63.478 69.3553 55.0833 59 55.0833C48.6447 55.0833 40.25 63.478 40.25 73.8333" stroke="#FF7A30" stroke-width="4" stroke-linecap="round" stroke-linejoin="round"/>
<defs>
<filter id="filter0_d_19_965" x="0" y="0" width="722" height="114" filterUnits="userSpaceOnUse" color-interpolation-filters="sRGB">
<feFlood flood-opacity="0" result="BackgroundImageFix"/>
<feColorMatrix in="SourceAlpha" type="matrix" values="0 0 0 0 0 0 0 0 0 0 0 0 0 0 0 0 0 0 127 0" result="hardAlpha"/>
<feOffset dy="4"/>
<feGaussianBlur stdDeviation="2"/>
<feComposite in2="hardAlpha" operator="out"/>
<feColorMatrix type="matrix" values="0 0 0 0 0 0 0 0 0 0 0 0 0 0 0 0 0 0 0.25 0"/>
<feBlend mode="normal" in2="BackgroundImageFix" result="effect1_dropShadow_19_965"/>
<feBlend mode="normal" in="SourceGraphic" in2="effect1_dropShadow_19_965" result="shape"/>
</filter>
</defs>
</svg>
