<svg width="27" height="24" viewBox="0 0 27 24" fill="none" xmlns="http://www.w3.org/2000/svg">
<g clip-path="url(#clip0_1_247)">
<g filter="url(#filter0_d_1_247)">
<path d="M13.5 3V21C9.5625 21 6.63666 16.4195 6.63666 16.4195H3.375C2.75368 16.4195 2.25 15.9718 2.25 15.4195V8.5054C2.25 7.9531 2.75368 7.5054 3.375 7.5054H6.63666C6.63666 7.5054 9.5625 3 13.5 3Z" stroke="#FF7A30" stroke-width="2" stroke-linejoin="round" shape-rendering="crispEdges"/>
</g>
<path d="M18 7.5C18.3505 7.77825 18.6683 8.08985 18.9473 8.4294C19.7655 9.4252 20.25 10.6611 20.25 12C20.25 13.3273 19.7738 14.5534 18.9685 15.5447C18.6845 15.8943 18.3595 16.2147 18 16.5" stroke="#FF7A30" stroke-width="2" stroke-linecap="round" stroke-linejoin="round"/>
<path d="M19.2577 20.5929C22.547 18.8477 24.75 15.6525 24.75 12C24.75 8.40425 22.6149 5.25175 19.4102 3.48953" stroke="#FF7A30" stroke-width="2" stroke-linecap="round"/>
</g>
<defs>
<filter id="filter0_d_1_247" x="-2.75" y="2" width="21.25" height="28" filterUnits="userSpaceOnUse" color-interpolation-filters="sRGB">
<feFlood flood-opacity="0" result="BackgroundImageFix"/>
<feColorMatrix in="SourceAlpha" type="matrix" values="0 0 0 0 0 0 0 0 0 0 0 0 0 0 0 0 0 0 127 0" result="hardAlpha"/>
<feOffset dy="4"/>
<feGaussianBlur stdDeviation="2"/>
<feComposite in2="hardAlpha" operator="out"/>
<feColorMatrix type="matrix" values="0 0 0 0 0 0 0 0 0 0 0 0 0 0 0 0 0 0 0.25 0"/>
<feBlend mode="normal" in2="BackgroundImageFix" result="effect1_dropShadow_1_247"/>
<feBlend mode="normal" in="SourceGraphic" in2="effect1_dropShadow_1_247" result="shape"/>
</filter>
<clipPath id="clip0_1_247">
<rect width="27" height="24" fill="white"/>
</clipPath>
</defs>
</svg>
