<svg width="44" height="42" viewBox="0 0 44 42" fill="none" xmlns="http://www.w3.org/2000/svg">
<g clip-path="url(#clip0_13_16)">
<g filter="url(#filter0_d_13_16)">
<path d="M22 5.25V36.75C15.5833 36.75 10.8153 28.7342 10.8153 28.7342H5.5C4.48747 28.7342 3.66666 27.9507 3.66666 26.9842V14.8844C3.66666 13.9179 4.48747 13.1345 5.5 13.1345H10.8153C10.8153 13.1345 15.5833 5.25 22 5.25Z" stroke="#FF7A30" stroke-width="2" stroke-linejoin="round" shape-rendering="crispEdges"/>
</g>
<path d="M29.3333 13.125C29.9046 13.6119 30.4224 14.1572 30.8771 14.7515C32.2105 16.4941 33 18.657 33 21C33 23.3227 32.224 25.4684 30.9117 27.2031C30.4487 27.8149 29.9192 28.3756 29.3333 28.875" stroke="#FF7A30" stroke-width="2" stroke-linecap="round" stroke-linejoin="round"/>
<path d="M31.3828 36.0375C36.7432 32.9834 40.3332 27.3919 40.3332 21C40.3332 14.7074 36.8539 9.19056 31.6314 6.10667" stroke="#FF7A30" stroke-width="2" stroke-linecap="round"/>
</g>
<defs>
<filter id="filter0_d_13_16" x="-1.33334" y="4.25" width="28.3333" height="41.5" filterUnits="userSpaceOnUse" color-interpolation-filters="sRGB">
<feFlood flood-opacity="0" result="BackgroundImageFix"/>
<feColorMatrix in="SourceAlpha" type="matrix" values="0 0 0 0 0 0 0 0 0 0 0 0 0 0 0 0 0 0 127 0" result="hardAlpha"/>
<feOffset dy="4"/>
<feGaussianBlur stdDeviation="2"/>
<feComposite in2="hardAlpha" operator="out"/>
<feColorMatrix type="matrix" values="0 0 0 0 0 0 0 0 0 0 0 0 0 0 0 0 0 0 0.25 0"/>
<feBlend mode="normal" in2="BackgroundImageFix" result="effect1_dropShadow_13_16"/>
<feBlend mode="normal" in="SourceGraphic" in2="effect1_dropShadow_13_16" result="shape"/>
</filter>
<clipPath id="clip0_13_16">
<rect width="44" height="42" fill="white"/>
</clipPath>
</defs>
</svg>
