<svg width="44" height="42" viewBox="0 0 44 42" fill="none" xmlns="http://www.w3.org/2000/svg">
<g clip-path="url(#clip0_1_302)">
<path d="M22 5.25V36.75C15.5833 36.75 10.8153 28.7342 10.8153 28.7342H5.49999C4.48747 28.7342 3.66666 27.9507 3.66666 26.9842V14.8844C3.66666 13.9179 4.48747 13.1345 5.49999 13.1345H10.8153C10.8153 13.1345 15.5833 5.25 22 5.25Z" fill="#FF7A30" stroke="#FF7A30" stroke-width="2" stroke-linejoin="round"/>
<path d="M29.3333 13.125C29.9046 13.6119 30.4224 14.1572 30.8771 14.7515C32.2105 16.4941 33 18.657 33 21C33 23.3227 32.2241 25.4684 30.9117 27.2031C30.4487 27.8149 29.9192 28.3756 29.3333 28.875" stroke="#FF7A30" stroke-width="2" stroke-linecap="round" stroke-linejoin="round"/>
<path d="M31.3828 36.0375C36.7432 32.9834 40.3332 27.3919 40.3332 21C40.3332 14.7074 36.8538 9.19057 31.6314 6.10669" stroke="#FF7A30" stroke-width="2" stroke-linecap="round"/>
</g>
<defs>
<clipPath id="clip0_1_302">
<rect width="44" height="42" fill="white"/>
</clipPath>
</defs>
</svg>
